<?xml version="1.0" encoding="UTF-8"?>
<svg version="1.1" xmlns="http://www.w3.org/2000/svg" width="2034" height="701">
<path d="M0 0 C6.69240278 1.33655745 11.97308997 4.71678815 17.75057983 8.24468994 C20.75711056 10.07981441 23.77990265 11.88784657 26.80078125 13.69921875 C27.4109761 14.06599731 28.02117096 14.43277588 28.64985657 14.81066895 C34.27276678 18.18305479 39.96636274 21.42224137 45.6875 24.625 C53.397225 28.94952928 61.06051322 33.34360656 68.6875 37.8125 C77.4262053 42.93220336 86.20014377 47.98646598 95 53 C104.72134099 58.53968899 114.40895092 64.13375063 124.06689453 69.78344727 C131.32212239 74.02617573 138.59398236 78.23919543 145.875 82.4375 C146.94016846 83.05294678 148.00533691 83.66839355 149.1027832 84.30249023 C154.19896868 87.24455864 159.30070178 90.17571736 164.42242432 93.07307434 C166.81320657 94.42651603 169.20058966 95.78589062 171.58770752 97.14578247 C173.26790336 98.09968112 174.95298498 99.04495777 176.63818359 99.98999023 C181.73139171 102.89437832 186.17245374 105.52185537 190 110 C182.25160929 125.65872528 174.35180109 141.22026374 165.84130859 156.48071289 C161.41799406 164.41883162 157.27979057 172.40625927 153.47044373 180.65708923 C150.95564944 186.0662792 148.28310395 191.36038676 145.47265625 196.62109375 C141.62836646 203.87274812 137.85153401 211.15589136 134.125 218.46875 C133.6243251 219.45113144 133.12365021 220.43351288 132.60780334 221.44566345 C131.07094919 224.46330859 129.53525492 227.48154095 128 230.5 C121.86311016 242.56571655 115.70403991 254.61491868 109.37548828 266.5814209 C106.15702068 272.67567932 103.04672499 278.81798243 100 285 C96.55119258 291.99787087 92.99806076 298.93170502 89.3515625 305.828125 C83.06745653 317.7158458 76.97932591 329.70234911 70.88085938 341.68603516 C61.26990327 360.56469893 61.26990327 360.56469893 56.7890625 368.890625 C53.83137032 374.38677625 51.00171934 379.93634501 48.22631836 385.52598572 C43.43904861 395.16188395 38.52220556 404.73215742 33.625 414.3125 C33.10309082 415.3339209 32.58118164 416.3553418 32.04345703 417.40771484 C25.4135889 430.3825345 18.77871663 443.35481627 12.12176514 456.31576538 C11.38935408 457.74187279 10.65728307 459.16815491 9.92559814 460.59463501 C5.9351947 468.37211744 1.88654 476.11388422 -2.2412262 483.81938171 C-4.71652949 488.44740138 -7.11560439 493.10595485 -9.4375 497.8125 C-9.77458984 498.49119141 -10.11167969 499.16988281 -10.45898438 499.86914062 C-11.30774033 501.57855893 -12.1540809 503.28917608 -13 505 C-13.33 505.66 -13.66 506.32 -14 507 C-18.21077305 506.40053727 -21.9880115 505.42718176 -25.98486328 503.98144531 C-27.15099152 503.56247986 -28.31711975 503.1435144 -29.51858521 502.71185303 C-30.78586465 502.25071206 -32.05310601 501.78946643 -33.3203125 501.328125 C-34.64704538 500.84934544 -35.97394309 500.37102238 -37.30099487 499.89312744 C-40.84343336 498.6160293 -44.38358571 497.33270364 -47.92333984 496.04818726 C-51.61810418 494.70869178 -55.31501072 493.3751354 -59.01171875 492.04101562 C-65.48482143 489.70404331 -71.95630552 487.36263323 -78.42683792 485.01855469 C-83.61414526 483.13940723 -88.80264406 481.26358712 -93.9921875 479.390625 C-95.36482855 478.89518526 -96.73746856 478.39974267 -98.11010742 477.90429688 C-98.75499115 477.67154053 -99.39987488 477.43878418 -100.06430054 477.19897461 C-102.03307125 476.48805808 -104.00155428 475.77634999 -105.9699707 475.06445312 C-116.90286518 471.11149866 -127.84316971 467.17921785 -138.78460693 463.24998474 C-140.15897749 462.75642235 -141.53334678 462.26285644 -142.90771484 461.76928711 C-143.94234612 461.39772696 -143.94234612 461.39772696 -144.99787903 461.01866055 C-149.88415296 459.26364319 -154.76964385 457.5064583 -159.65478516 455.74829102 C-162.41435536 454.7552803 -165.17396438 453.76237752 -167.93359375 452.76953125 C-168.61407021 452.52468554 -169.29454666 452.27983982 -169.99564362 452.02757454 C-178.26557551 449.05255246 -186.54051783 446.09244133 -194.82395935 443.15518188 C-199.16957715 441.61322183 -203.5124082 440.06351346 -207.85482788 438.51257324 C-209.84125994 437.80547448 -211.82904312 437.10215797 -213.81826782 436.4029541 C-242.60183061 426.28268766 -242.60183061 426.28268766 -249.17138672 412.92114258 C-249.85295048 411.41771244 -250.52183111 409.90848512 -251.1796875 408.39453125 C-251.54931107 407.57036209 -251.91893463 406.74619293 -252.29975891 405.89704895 C-253.50286556 403.20709903 -254.68897677 400.51002008 -255.875 397.8125 C-256.71809507 395.91863502 -257.56226703 394.0252491 -258.4074707 392.13232422 C-260.54708375 387.3335399 -262.67319311 382.52890461 -264.7958374 377.72259521 C-266.60124723 373.64058821 -268.41941156 369.56430413 -270.23828125 365.48828125 C-273.84702055 357.39565236 -277.43921654 349.29575549 -281.02789307 341.19421387 C-283.97381374 334.54476023 -286.92343952 327.89695193 -289.875 321.25 C-290.20304626 320.51107513 -290.53109253 319.77215027 -290.86907959 319.01083374 C-296.51535386 306.29661241 -302.22311883 293.61062207 -307.94381714 280.92974854 C-314.24337817 266.96054599 -320.44914919 252.95152534 -326.6255188 238.92749023 C-332.58817149 225.39457767 -338.637511 211.9033604 -344.75 198.4375 C-351.06323537 184.52909561 -357.30120157 170.59142247 -363.44506836 156.60742188 C-368.02073565 146.19624422 -372.65716764 135.81327297 -377.3125 125.4375 C-384.29853734 109.86507203 -391.18480742 94.2501978 -398.0246582 78.61303711 C-398.38457352 77.79076126 -398.74448883 76.96848541 -399.11531067 76.12129211 C-399.80850279 74.53734067 -400.50105985 72.95311111 -401.19291687 71.36857605 C-403.44658343 66.21951676 -405.77520528 61.11080333 -408.19628906 56.0378418 C-409 54 -409 54 -409 51 C-398.63553521 52.38626161 -388.37839455 54.14130775 -378.10107422 56.0534668 C-376.45305215 56.35791013 -374.80498456 56.66210709 -373.15687561 56.96607971 C-368.71486083 57.78611028 -364.27350805 58.60967398 -359.83228827 59.43399787 C-355.13431703 60.30543084 -350.43578681 61.17384037 -345.73733521 62.04267883 C-337.82713021 63.5059025 -329.91734034 64.97135304 -322.0078125 66.43823242 C-312.96443956 68.11537245 -303.92049976 69.78942572 -294.87621868 71.46166104 C-286.08316128 73.08749137 -277.29045969 74.71523797 -268.49792862 76.34391212 C-264.80447145 77.02805586 -261.11091259 77.71164635 -257.41726303 78.3947506 C-245.60826599 80.57927827 -233.80163446 82.77601153 -222 85 C-220.72532978 85.24020583 -220.72532978 85.24020583 -219.42490864 85.4852643 C-214.33212169 86.44631556 -209.24078625 87.41460947 -204.15113854 88.39215243 C-202.57452293 88.6943703 -200.99759438 88.99496087 -199.42033553 89.29380357 C-197.25476442 89.70467252 -195.09053346 90.12198263 -192.92654419 90.54109192 C-191.70463442 90.7754234 -190.48272465 91.00975489 -189.22378731 91.25118732 C-181.77610555 92.98111488 -181.77610555 92.98111488 -179.65527344 95.76538086 C-176.12738173 103.39514666 -173.13862331 111.20849155 -170.18557739 119.07443237 C-164.5816709 133.97742002 -158.70840501 148.75023742 -152.5625 163.4375 C-146.92545625 176.91406788 -141.39388802 190.42420957 -136 204 C-130.87915535 216.88020559 -125.65499025 229.71021981 -120.3125 242.5 C-112.18112012 261.97209399 -104.30647807 281.54585878 -96.4375 301.125 C-96.12011368 301.91470058 -95.80272736 302.70440117 -95.47572327 303.51803207 C-95.00053505 304.70036612 -95.00053505 304.70036612 -94.51574707 305.90658569 C-92.63333151 310.59024356 -90.75054548 315.27375226 -88.8671875 319.95703125 C-88.41193947 321.08910413 -88.41193947 321.08910413 -87.94749451 322.24404716 C-83.03607399 334.45430642 -78.078966 346.64497053 -73.0625 358.8125 C-68.08342153 370.89207211 -63.16384176 382.99349967 -58.3125 395.125 C-58.02472687 395.84402496 -57.73695374 396.56304993 -57.44046021 397.30386353 C-53.89150473 406.17683199 -50.40586389 415.07093314 -47 424 C-47 421.09493883 -47.38287677 418.678175 -47.94287109 415.83398438 C-48.15122589 414.77017548 -48.35958069 413.70636658 -48.57424927 412.61032104 C-48.80498138 411.4498526 -49.0357135 410.28938416 -49.2734375 409.09375 C-49.51262909 407.88244415 -49.75182068 406.67113831 -49.9982605 405.42312622 C-50.78586521 401.4478099 -51.57934405 397.4737104 -52.375 393.5 C-52.51014511 392.82392448 -52.64529022 392.14784897 -52.78453064 391.45128632 C-57.70399572 366.84984813 -62.98855833 342.36035787 -69 318 C-69.17019653 317.30461121 -69.34039307 316.60922241 -69.51574707 315.89276123 C-76.55165294 287.1520104 -86.10048807 259.21027621 -96.52270508 231.5390625 C-100.80479831 220.11799878 -105.13839629 208.42077596 -99.97927856 196.5087738 C-99.04729059 194.60750159 -98.08932581 192.71880892 -97.10986328 190.84155273 C-96.58947983 189.79742722 -96.06909637 188.7533017 -95.53294373 187.67753601 C-93.81803308 184.25095797 -92.06971345 180.8426737 -90.3203125 177.43359375 C-89.10645401 175.03239171 -87.8997703 172.62760614 -86.69284058 170.22291565 C-83.83769698 164.54466934 -80.9580388 158.87923529 -78.06937587 153.2179814 C-74.81974471 146.84609486 -71.59928225 140.45963206 -68.38059258 134.07207572 C-59.13567772 115.73081445 -49.8873024 97.39133609 -40.28495979 79.23393154 C-37.30109441 73.58885516 -34.39448052 67.91047258 -31.5625 62.1875 C-30.88682983 60.83047974 -30.88682983 60.83047974 -30.19750977 59.44604492 C-28.79629251 56.63170893 -27.39775743 53.81605574 -26 51 C-19.83880136 38.58706026 -13.60620762 26.22647368 -7.10595703 13.98706055 C-4.65421518 9.36604333 -2.29582142 4.70039228 0 0 Z " fill="#373F46" transform="translate(467,104)"/>
<path d="M0 0 C6.69240278 1.33655745 11.97308997 4.71678815 17.75057983 8.24468994 C20.75711056 10.07981441 23.77990265 11.88784657 26.80078125 13.69921875 C27.4109761 14.06599731 28.02117096 14.43277588 28.64985657 14.81066895 C34.27276678 18.18305479 39.96636274 21.42224137 45.6875 24.625 C53.397225 28.94952928 61.06051322 33.34360656 68.6875 37.8125 C77.4262053 42.93220336 86.20014377 47.98646598 95 53 C104.72134099 58.53968899 114.40895092 64.13375063 124.06689453 69.78344727 C131.32212239 74.02617573 138.59398236 78.23919543 145.875 82.4375 C146.94016846 83.05294678 148.00533691 83.66839355 149.1027832 84.30249023 C154.19896868 87.24455864 159.30070178 90.17571736 164.42242432 93.07307434 C166.81320657 94.42651603 169.20058966 95.78589062 171.58770752 97.14578247 C173.26790336 98.09968112 174.95298498 99.04495777 176.63818359 99.98999023 C181.73139171 102.89437832 186.17245374 105.52185537 190 110 C182.25160929 125.65872528 174.35180109 141.22026374 165.84130859 156.48071289 C161.41799406 164.41883162 157.27979057 172.40625927 153.47044373 180.65708923 C150.95564944 186.0662792 148.28310395 191.36038676 145.47265625 196.62109375 C141.62836646 203.87274812 137.85153401 211.15589136 134.125 218.46875 C133.37398766 219.94232216 133.37398766 219.94232216 132.60780334 221.44566345 C131.07094919 224.46330859 129.53525492 227.48154095 128 230.5 C121.86311016 242.56571655 115.70403991 254.61491868 109.37548828 266.5814209 C106.15702068 272.67567932 103.04672499 278.81798243 100 285 C96.55119258 291.99787087 92.99806076 298.93170502 89.3515625 305.828125 C83.06745653 317.7158458 76.97932591 329.70234911 70.88085938 341.68603516 C61.26990327 360.56469893 61.26990327 360.56469893 56.7890625 368.890625 C53.83137032 374.38677625 51.00171934 379.93634501 48.22631836 385.52598572 C43.43904861 395.16188395 38.52220556 404.73215742 33.625 414.3125 C33.10309082 415.3339209 32.58118164 416.3553418 32.04345703 417.40771484 C25.4135889 430.3825345 18.77871663 443.35481627 12.12176514 456.31576538 C11.38935408 457.74187279 10.65728307 459.16815491 9.92559814 460.59463501 C5.92384461 468.3942393 1.86208663 476.15683128 -2.27981567 483.88296509 C-5.18412031 489.31316303 -7.88568851 494.81815238 -10.5546875 500.3671875 C-12 503 -12 503 -14 504 C-13.8462793 503.08299316 -13.69255859 502.16598633 -13.53417969 501.22119141 C-12.79211611 495.98929979 -12.64270831 490.73677437 -12.453125 485.4609375 C-12.41149231 484.32667328 -12.36985962 483.19240906 -12.32696533 482.02377319 C-11.85816532 468.22656856 -11.75529915 454.42927877 -11.75 440.625 C-11.74970543 439.94966972 -11.74941086 439.27433945 -11.74910736 438.57854462 C-11.74756787 416.599231 -12.17013187 394.81985243 -15 373 C-15.1018158 372.21270508 -15.20363159 371.42541016 -15.30853271 370.61425781 C-21.55192516 322.90383669 -31.76677996 275.67336193 -47 230 C-47.39010254 228.81486816 -47.78020508 227.62973633 -48.18212891 226.40869141 C-54.61592228 206.93111396 -61.78569875 187.74906399 -70.21484375 169.0390625 C-70.54202393 168.31114502 -70.8692041 167.58322754 -71.20629883 166.83325195 C-72.0428842 164.99311985 -72.89929322 163.16203286 -73.7578125 161.33203125 C-76.31011075 154.48577211 -76.65340181 150.74210644 -73.61010742 144.0690918 C-72.46251417 141.76873155 -71.29283546 139.4793038 -70.10546875 137.19921875 C-69.4761036 135.95665743 -68.84847654 134.71321441 -68.2224884 133.46894836 C-66.56876002 130.1939094 -64.89111292 126.93171265 -63.20825195 123.67156982 C-61.535847 120.42086021 -59.88734346 117.15809323 -58.23632812 113.89648438 C-52.44283199 102.47276495 -46.55160303 91.10221221 -40.55375671 79.78434753 C-35.53270729 70.27565562 -30.78045279 60.63115716 -26 51 C-19.83880136 38.58706026 -13.60620762 26.22647368 -7.10595703 13.98706055 C-4.65421518 9.36604333 -2.29582142 4.70039228 0 0 Z " fill="#276068" transform="translate(467,104)"/>
<path d="M0 0 C0 0.66 0 1.32 0 2 C0.96486328 2.03867187 0.96486328 2.03867187 1.94921875 2.078125 C16.25272981 2.97592027 28.35178845 8.7592058 41 15 C41 15.66 41 16.32 41 17 C41.556875 17.268125 42.11375 17.53625 42.6875 17.8125 C45.21225334 19.10899496 47.63714484 20.42476323 50 22 C50 22.66 50 23.32 50 24 C50.7425 24.226875 51.485 24.45375 52.25 24.6875 C55.571561 26.27279048 56.77187051 28.09667975 59 31 C60.46594838 32.21100084 61.93258359 33.42132994 63.4140625 34.61328125 C66.78306299 37.55908217 70.02048087 40.98265703 71.984375 45.02734375 C72.88333214 47.04304614 72.88333214 47.04304614 74.45703125 48.37109375 C76.62620399 50.66108117 77.50917062 53.15029255 78.6875 56.0625 C79.12449219 57.12597656 79.56148437 58.18945312 80.01171875 59.28515625 C81 62 81 62 81 64 C81.66 64 82.32 64 83 64 C83.17128418 64.60473145 83.34256836 65.20946289 83.51904297 65.83251953 C84.30294487 68.59708376 85.08895446 71.36104454 85.875 74.125 C86.14441406 75.07632813 86.41382813 76.02765625 86.69140625 77.0078125 C88.29474005 82.63904754 88.29474005 82.63904754 90.125 88.19921875 C91.20579383 91.65872399 91.71528941 95.09990061 92.125 98.6875 C92.20919189 99.41646484 92.29338379 100.14542969 92.38012695 100.89648438 C92.97698279 106.6001766 93.18181412 112.26693211 93.1875 118 C93.18830566 118.76401123 93.18911133 119.52802246 93.18994141 120.31518555 C93.04682143 134.95317857 93.04682143 134.95317857 91 137 C88.75975357 137.09704641 86.51637946 137.12186656 84.27403259 137.12025452 C83.56264006 137.12110894 82.85124752 137.12196337 82.11829764 137.12284368 C79.71677952 137.12450057 77.31533012 137.11897374 74.91381836 137.11352539 C73.19940696 137.11324354 71.48499544 137.11340122 69.77058411 137.1139679 C65.10136027 137.11425594 60.43216188 137.10835804 55.76294398 137.10139394 C50.88888473 137.09516161 46.01482495 137.0945567 41.14076233 137.09336853 C31.9043057 137.09025486 22.66786085 137.08204098 13.43140942 137.07201904 C2.91889135 137.06085902 -7.59362728 137.05534774 -18.10614979 137.05032361 C-39.73743978 137.0398584 -61.36871915 137.02225826 -83 137 C-83 137.66 -83 138.32 -83 139 C-82.34 139 -81.68 139 -81 139 C-80.16280617 141.29032311 -79.3301071 143.58210957 -78.5 145.875 C-78.14228516 146.85146484 -78.14228516 146.85146484 -77.77734375 147.84765625 C-76 152.7734375 -76 152.7734375 -76 155 C-75.01 155.33 -74.02 155.66 -73 156 C-72.07158964 157.69103316 -71.1455612 159.38347397 -70.23828125 161.0859375 C-67.47576023 165.35608041 -63.17498498 168.21667668 -59 171 C-59 171.66 -59 172.32 -59 173 C-58.175 173.268125 -57.35 173.53625 -56.5 173.8125 C-52.63084439 175.12524922 -48.82005706 176.55101284 -45 178 C-45 178.66 -45 179.32 -45 180 C-26.84784779 182.75691769 -11.09864539 183.56253774 7.00805664 180.27539062 C9 180 9 180 13 180 C13 179.34 13 178.68 13 178 C14.58199631 177.35089846 16.16565724 176.70585306 17.75 176.0625 C19.07257813 175.52302734 19.07257813 175.52302734 20.421875 174.97265625 C22.61186104 174.14643424 24.71898271 173.50630057 27 173 C27 172.34 27 171.68 27 171 C28.57421875 169.88671875 28.57421875 169.88671875 30.6875 168.6875 C33.58340185 166.97651742 35.37435685 165.60862693 37.75 163.125 C40 161 40 161 42 160.875 C46.85934655 163.60838244 50.56681701 168.61996573 54.3125 172.6875 C55.19550781 173.64011719 56.07851562 174.59273437 56.98828125 175.57421875 C59 178 59 178 59 180 C59.8971875 180.3403125 59.8971875 180.3403125 60.8125 180.6875 C63 182 63 182 64.375 184.3125 C66.05165959 187.08543702 67.92184004 188.74175055 70.44140625 190.74609375 C74.24291501 193.80445042 77.04698018 196.15292073 78 201 C77.51789063 201.39832031 77.03578125 201.79664063 76.5390625 202.20703125 C75.90742187 202.73683594 75.27578125 203.26664063 74.625 203.8125 C73.99851562 204.33457031 73.37203125 204.85664063 72.7265625 205.39453125 C70.7778952 207.08225739 70.7778952 207.08225739 69 210 C66.33705985 211.77529344 64.04294926 212.98568358 61 214 C61 214.66 61 215.32 61 216 C59.37750059 216.83819158 57.75191503 217.6704116 56.125 218.5 C55.22007812 218.9640625 54.31515625 219.428125 53.3828125 219.90625 C51 221 51 221 49 221 C49 221.66 49 222.32 49 223 C46.89828133 223.8394882 44.79353375 224.67139656 42.6875 225.5 C41.51574219 225.9640625 40.34398437 226.428125 39.13671875 226.90625 C36 228 36 228 33 228 C33 228.66 33 229.32 33 230 C-0.71633322 238.12346742 -36.29260655 239.1223464 -70 230 C-70 229.34 -70 228.68 -70 228 C-70.56847656 227.89042969 -71.13695312 227.78085937 -71.72265625 227.66796875 C-76.82316758 226.62061834 -81.284442 225.20728247 -86 223 C-86 222.34 -86 221.68 -86 221 C-87.03125 220.731875 -88.0625 220.46375 -89.125 220.1875 C-94.20016165 218.72864787 -98.32376479 216.82941167 -102 213 C-102.94875 212.38125 -103.8975 211.7625 -104.875 211.125 C-107.99317667 209.00463987 -110.37610138 206.69294859 -113 204 C-113.763125 203.443125 -114.52625 202.88625 -115.3125 202.3125 C-115.869375 201.879375 -116.42625 201.44625 -117 201 C-117 200.34 -117 199.68 -117 199 C-117.66 199 -118.32 199 -119 199 C-120.23089362 197.30336284 -121.45567349 195.60155208 -122.6328125 193.8671875 C-124.08648152 191.76681918 -124.08648152 191.76681918 -126.6875 189.4375 C-129.26071959 186.72518746 -130.08243681 184.58683794 -131 181 C-131.66 181 -132.32 181 -133 181 C-133.83790789 179.21046815 -134.67019396 177.41830305 -135.5 175.625 C-135.9640625 174.62726563 -136.428125 173.62953125 -136.90625 172.6015625 C-138 170 -138 170 -138 168 C-138.66 168 -139.32 168 -140 168 C-142.58459767 160.33035667 -144.63379732 153.11138929 -145 145 C-145.66 145 -146.32 145 -147 145 C-149.85917425 126.96520859 -148.85380165 109.0842095 -147 91 C-146.34 91 -145.68 91 -145 91 C-144.97421875 90.42894531 -144.9484375 89.85789062 -144.921875 89.26953125 C-144.39903296 81.79526662 -142.38525846 75.07811579 -140 68 C-139.34 68 -138.68 68 -138 68 C-137.80664062 67.40832031 -137.61328125 66.81664062 -137.4140625 66.20703125 C-134.31819846 56.81215672 -134.31819846 56.81215672 -133 54 C-132.01 53.505 -132.01 53.505 -131 53 C-129.93489565 51.24063735 -129.02623787 49.4283566 -128.09765625 47.59375 C-127 46 -127 46 -124 45 C-123.86464844 44.42765625 -123.72929688 43.8553125 -123.58984375 43.265625 C-122.73874043 39.9964864 -120.82405069 38.22504108 -118.5625 35.75 C-117.75941406 34.85796875 -116.95632813 33.9659375 -116.12890625 33.046875 C-114 31 -114 31 -112 31 C-112 30.34 -112 29.68 -112 29 C-109.81069427 27.05362129 -107.61794146 25.23625103 -105.3125 23.4375 C-104.68666016 22.93025391 -104.06082031 22.42300781 -103.41601562 21.90039062 C-100.02006718 19.22985944 -97.45285962 17.34907695 -93 17 C-92.505 15.515 -92.505 15.515 -92 14 C-80.39239879 7.02400321 -65.49912093 2.31459816 -52 2 C-52 1.34 -52 0.68 -52 0 C-34.2093916 -2.08425538 -17.81127904 -1.88224871 0 0 Z M-43 50 C-43 50.66 -43 51.32 -43 52 C-43.99 52.0825 -44.98 52.165 -46 52.25 C-50.47456948 52.86308007 -54.09570685 54.81968045 -58 57 C-58 57.66 -58 58.32 -58 59 C-58.680625 59.20625 -59.36125 59.4125 -60.0625 59.625 C-66.89925105 62.82518134 -70.54705939 67.4640767 -74 74 C-74.48597656 74.44988281 -74.97195313 74.89976562 -75.47265625 75.36328125 C-77.50277205 77.53877619 -78.20602029 79.70221875 -79.1875 82.5 C-79.53167969 83.4590625 -79.87585937 84.418125 -80.23046875 85.40625 C-81.14221621 88.02843177 -81.14221621 88.02843177 -81 91 C-81.66 91 -82.32 91 -83 91 C-83.33 92.98 -83.66 94.96 -84 97 C-46.71 97 -9.42 97 29 97 C28.32563017 90.81781922 28.32563017 90.81781922 26.9375 85 C26.4734375 83.515 26.4734375 83.515 26 82 C25.34 82 24.68 82 24 82 C23.9175 81.319375 23.835 80.63875 23.75 79.9375 C22.26979693 74.14003797 19.28974968 70.02164032 15 66 C14.01 64.700625 14.01 64.700625 13 63.375 C11.01035632 61.01229813 9.74471721 60.23954971 7 59 C6.58621094 58.53980469 6.17242188 58.07960938 5.74609375 57.60546875 C3.42843632 55.4744683 1.04396798 54.59853589 -1.875 53.4375 C-2.90367187 53.02371094 -3.93234375 52.60992187 -4.9921875 52.18359375 C-5.98476562 51.79300781 -6.97734375 51.40242188 -8 51 C-9.17949219 50.45279297 -9.17949219 50.45279297 -10.3828125 49.89453125 C-13.88554036 48.69733023 -17.33262414 48.44731248 -21 48.25 C-21.74241943 48.20689697 -22.48483887 48.16379395 -23.24975586 48.11938477 C-30.0342263 47.82194148 -36.34585068 48.59973553 -43 50 Z " fill="#3A3D44" transform="translate(1116,255)"/>
<path d="M0 0 C0 0.66 0 1.32 0 2 C0.93005859 2.03867187 0.93005859 2.03867187 1.87890625 2.078125 C11.2687281 2.67951097 22.49009112 4.00456339 30 10 C31.68539039 10.76131342 33.39573332 11.46942726 35.125 12.125 C39.92405063 13.96202532 39.92405063 13.96202532 42 15 C42 15.66 42 16.32 42 17 C42.88429688 17.2475 43.76859375 17.495 44.6796875 17.75 C48.17230746 19.06486869 50.29999462 20.59121798 53.125 23 C56.01440979 25.44834724 58.61605205 27.3334966 62 29 C63.37073786 30.63604196 64.70055256 32.30678061 66 34 C67.2065625 35.2065625 67.2065625 35.2065625 68.4375 36.4375 C73.20430908 41.20430908 76.90596839 46.0411243 80 52 C80 52.66 80 53.32 80 54 C80.99 54.33 81.98 54.66 83 55 C84.16796875 56.9609375 84.16796875 56.9609375 85.1875 59.375 C85.70376953 60.56222656 85.70376953 60.56222656 86.23046875 61.7734375 C87 64 87 64 87 67 C87.66 67 88.32 67 89 67 C89.77283351 69.29100842 90.54328292 71.58277718 91.3125 73.875 C91.52583984 74.50664062 91.73917969 75.13828125 91.95898438 75.7890625 C92.65128134 77.85562062 93.32703622 79.92706831 94 82 C94.26184082 82.78503906 94.52368164 83.57007813 94.79345703 84.37890625 C96.6963095 90.32429936 97.7286206 96.03556741 98.25 102.25 C98.3315332 103.19020996 98.41306641 104.13041992 98.49707031 105.09912109 C99.57259746 119.36288534 99.04424737 133.99055095 96 148 C95.34 148 94.68 148 94 148 C93.9175 149.051875 93.835 150.10375 93.75 151.1875 C93.00810063 157.33308436 90.92058197 163.13999174 89 169 C88.34 169 87.68 169 87 169 C86.80664062 169.60328125 86.61328125 170.2065625 86.4140625 170.828125 C86.15367187 171.62734375 85.89328125 172.4265625 85.625 173.25 C85.36976563 174.03890625 85.11453125 174.8278125 84.8515625 175.640625 C84.04826333 177.86627958 83.10288338 179.90931672 82 182 C81.34 182 80.68 182 80 182 C79.731875 182.9075 79.46375 183.815 79.1875 184.75 C78.09868368 187.72991834 77.13608899 189.68590359 75 192 C74.34 192 73.68 192 73 192 C72.731875 192.598125 72.46375 193.19625 72.1875 193.8125 C71.00082594 195.99847854 69.90400887 197.41332594 68 199 C67.34 199 66.68 199 66 199 C65.773125 199.5775 65.54625 200.155 65.3125 200.75 C63.65238361 203.59591381 61.60812043 204.99841921 59 207 C57.7315625 208.299375 57.7315625 208.299375 56.4375 209.625 C54.23161873 211.77432021 52.69857578 212.69423753 50 214 C49.071875 214.9590625 49.071875 214.9590625 48.125 215.9375 C44.84547589 219.12056751 41.60721091 221 37 221 C37 221.66 37 222.32 37 223 C35.08717875 223.84212256 33.16957527 224.67338864 31.25 225.5 C30.18265625 225.9640625 29.1153125 226.428125 28.015625 226.90625 C25 228 25 228 21 228 C21 228.66 21 229.32 21 230 C-9.80847206 237.94311044 -44.36105136 240.11731091 -75 230 C-75 229.34 -75 228.68 -75 228 C-75.94875 227.9175 -76.8975 227.835 -77.875 227.75 C-82.88977467 227.06008234 -87.38454926 224.99662356 -92 223 C-92 222.34 -92 221.68 -92 221 C-92.886875 220.731875 -93.77375 220.46375 -94.6875 220.1875 C-97.7909666 219.0749365 -100.31110685 217.89804222 -103 216 C-103 215.34 -103 214.68 -103 214 C-104.0828125 213.5978125 -104.0828125 213.5978125 -105.1875 213.1875 C-110.00307352 211.15425785 -113.37708426 208.73613186 -117 205 C-117.78375 204.401875 -118.5675 203.80375 -119.375 203.1875 C-123.8332738 199.47227184 -127.77776808 194.83334787 -131 190 C-131 189.34 -131 188.68 -131 188 C-131.99 187.67 -132.98 187.34 -134 187 C-135.38671875 184.78515625 -135.38671875 184.78515625 -136.6875 182.0625 C-137.12449219 181.16660156 -137.56148437 180.27070313 -138.01171875 179.34765625 C-139 177 -139 177 -139 175 C-139.66 175 -140.32 175 -141 175 C-141.8394882 172.89828133 -142.67139656 170.79353375 -143.5 168.6875 C-144.19609375 166.92986328 -144.19609375 166.92986328 -144.90625 165.13671875 C-146 162 -146 162 -146 159 C-146.66 159 -147.32 159 -148 159 C-155.09428283 131.37959219 -154.57332475 103.65178613 -148 76 C-147.34 76 -146.68 76 -146 76 C-145.731875 74.824375 -145.46375 73.64875 -145.1875 72.4375 C-144.18552881 68.39357312 -142.7340076 64.7832893 -141 61 C-140.34 61 -139.68 61 -139 61 C-138.7525 60.154375 -138.505 59.30875 -138.25 58.4375 C-136.86026373 54.61572526 -135.08879162 51.48131937 -133 48 C-132.34 48 -131.68 48 -131 48 C-130.63261719 46.91332031 -130.63261719 46.91332031 -130.2578125 45.8046875 C-126.21758405 36.7957309 -116.19542945 27.5158995 -107 24 C-106.690625 23.360625 -106.38125 22.72125 -106.0625 22.0625 C-104.46317166 18.95792145 -102.15113763 18.28617863 -99 17 C-98.01 17 -97.02 17 -96 17 C-95.505 15.515 -95.505 15.515 -95 14 C-93.07421875 12.83203125 -93.07421875 12.83203125 -90.6875 11.8125 C-89.90761719 11.46832031 -89.12773438 11.12414062 -88.32421875 10.76953125 C-86 10 -86 10 -82 10 C-82 9.34 -82 8.68 -82 8 C-72.43201798 4.61339468 -63.23982312 1.5547903 -53 2 C-53 1.34 -53 0.68 -53 0 C-35.34244907 -2.10291699 -17.63189009 -2.86916709 0 0 Z M-51 57 C-51 57.66 -51 58.32 -51 59 C-51.66 59.0825 -52.32 59.165 -53 59.25 C-62.63309476 61.65827369 -68.04708635 67.43812649 -73.66796875 75.328125 C-75 77 -75 77 -77 78 C-77.94773382 79.92418685 -78.81119422 81.89045607 -79.625 83.875 C-80.29402344 85.47988281 -80.29402344 85.47988281 -80.9765625 87.1171875 C-82.16727809 89.96133955 -82.16727809 89.96133955 -82 93 C-82.66 93 -83.32 93 -84 93 C-85.95683375 103.37820755 -87.71598642 113.39279382 -87 124 C-86.93039062 125.093125 -86.86078125 126.18625 -86.7890625 127.3125 C-85.10055362 143.82236456 -77.98842758 157.65959554 -66 169 C-65.40703125 169.64839844 -64.8140625 170.29679687 -64.203125 170.96484375 C-61.74685284 173.23384693 -59.48990663 174.40444932 -56.4375 175.75 C-55.48746094 176.17796875 -54.53742188 176.6059375 -53.55859375 177.046875 C-50.98651385 178.17454219 -50.98651385 178.17454219 -48 178 C-48 178.66 -48 179.32 -48 180 C-40.88620377 181.69772033 -34.17772788 182.31077166 -26.875 182.25 C-25.93785156 182.25773438 -25.00070312 182.26546875 -24.03515625 182.2734375 C-18.34849558 182.25753076 -13.45435241 181.61705507 -8 180 C-8 179.34 -8 178.68 -8 178 C-7.175 177.9175 -6.35 177.835 -5.5 177.75 C-1.23246079 176.83552731 2.19236894 175.07776822 6 173 C6 172.34 6 171.68 6 171 C7.0828125 170.690625 7.0828125 170.690625 8.1875 170.375 C11.83484641 168.59185287 13.51893497 166.1808526 16 163 C16.70125 162.319375 17.4025 161.63875 18.125 160.9375 C20.60527552 158.37454863 23 155.68666926 23 152 C23.66 152 24.32 152 25 152 C25.84226 149.44013121 26.67398551 146.87760985 27.5 144.3125 C27.85771484 143.2306543 27.85771484 143.2306543 28.22265625 142.12695312 C29.44398994 138.30592343 30.32075577 135.06557944 30 131 C30.66 131 31.32 131 32 131 C32 122.09 32 113.18 32 104 C31.34 104 30.68 104 30 104 C29.9175 102.7625 29.835 101.525 29.75 100.25 C29.10443016 94.20862254 27.0672672 88.682581 25 83 C24.34 83 23.68 83 23 83 C22.5978125 81.6696875 22.5978125 81.6696875 22.1875 80.3125 C19.93999339 74.04313946 16.5722855 69.685307 11 66 C10.01 66 9.02 66 8 66 C7.690625 65.1028125 7.690625 65.1028125 7.375 64.1875 C5.47304173 61.1616573 3.24699596 60.35291498 0 59 C-0.66 59 -1.32 59 -2 59 C-2 58.34 -2 57.68 -2 57 C-19.28269846 51.7896037 -33.71730154 51.7896037 -51 57 Z " fill="#3A3D44" transform="translate(1792,255)"/>
<path d="M0 0 C0 0.66 0 1.32 0 2 C0.72960938 2.02578125 1.45921875 2.0515625 2.2109375 2.078125 C9.13910617 2.45446996 15.72676244 3.40117448 22.5 4.875 C23.26489746 5.03645508 24.02979492 5.19791016 24.81787109 5.36425781 C29.10260089 6.33784521 32.26319007 7.62033995 36 10 C38.04372082 10.76082033 40.10782465 11.4688043 42.1875 12.125 C47.85762712 13.92881356 47.85762712 13.92881356 50 15 C50 15.66 50 16.32 50 17 C51.65 17.33 53.3 17.66 55 18 C56.23593891 21.70781672 55.5678132 22.67510253 54.0625 26.1875 C53.68222656 27.08855469 53.30195312 27.98960937 52.91015625 28.91796875 C52.60980469 29.60503906 52.30945312 30.29210937 52 31 C51.34 31 50.68 31 50 31 C49.87753906 31.71542969 49.75507812 32.43085938 49.62890625 33.16796875 C48.98864625 36.05112713 48.06448444 38.58592473 46.9375 41.3125 C46.57527344 42.19550781 46.21304687 43.07851563 45.83984375 43.98828125 C45.56269531 44.65214844 45.28554687 45.31601562 45 46 C44.34 46 43.68 46 43 46 C42.80664062 46.59167969 42.61328125 47.18335938 42.4140625 47.79296875 C41.05585281 51.9146645 39.67949415 55.9950524 38 60 C37.34 60 36.68 60 36 60 C35.34 62.31 34.68 64.62 34 67 C32.68 66.67 31.36 66.34 30 66 C30 65.34 30 64.68 30 64 C29.360625 63.9175 28.72125 63.835 28.0625 63.75 C23.79458483 62.70479628 19.96892333 60.85908174 16 59 C16 58.34 16 57.68 16 57 C15.20335937 56.87753906 14.40671875 56.75507813 13.5859375 56.62890625 C9.23226552 55.86535376 4.93589377 54.91037316 0.625 53.9375 C-0.20644531 53.75123047 -1.03789063 53.56496094 -1.89453125 53.37304688 C-3.93001382 52.91681802 -5.96505255 52.45860975 -8 52 C-8 51.34 -8 50.68 -8 50 C-23.42134139 48.93119416 -38.57360969 48.52075709 -54 50 C-54 50.66 -54 51.32 -54 52 C-54.94359375 52.20302734 -54.94359375 52.20302734 -55.90625 52.41015625 C-62.72591634 54.12534342 -67.22246853 56.82330141 -72 62 C-74.00582968 66.01165936 -73.60792031 70.64825359 -73 75 C-69.95801446 81.48075181 -63.3241314 84.42701978 -57 87 C-52.81123434 88.17460251 -48.59316586 88.98660178 -44.3125 89.75 C-43.22388672 89.95753906 -42.13527344 90.16507812 -41.01367188 90.37890625 C-35.69101842 91.38195949 -30.37002518 92.29321557 -25 93 C-25 93.66 -25 94.32 -25 95 C-24.31679687 95.02578125 -23.63359375 95.0515625 -22.9296875 95.078125 C-11.78337087 95.70528348 -0.94265844 97.8798323 10 100 C10 100.66 10 101.32 10 102 C11.093125 102.0825 12.18625 102.165 13.3125 102.25 C23.34452561 103.55469226 32.80279537 108.1918585 41 114 C41 114.66 41 115.32 41 116 C41.7425 116.226875 42.485 116.45375 43.25 116.6875 C46.57697408 118.27537399 47.81216307 120.06009412 50 123 C50.86625 123.804375 51.7325 124.60875 52.625 125.4375 C55.20617096 128.22244761 56.06819174 130.35747682 57 134 C57.66 134 58.32 134 59 134 C59.48509793 135.37291868 59.96275513 136.74846703 60.4375 138.125 C60.70433594 138.89070312 60.97117187 139.65640625 61.24609375 140.4453125 C65.3747624 154.43572338 65.64925929 176.70148142 59 190 C58.34 190 57.68 190 57 190 C56.9175 190.66 56.835 191.32 56.75 192 C55.11385115 198.54459539 52.55949161 203.06767667 47 207 C44.65958027 209.22897117 42.4684963 211.32001109 40.6328125 213.984375 C38.78158914 216.26961723 37.07820645 217.35776852 34.5 218.75 C33.7265625 219.17796875 32.953125 219.6059375 32.15625 220.046875 C30 221 30 221 27 221 C27 221.66 27 222.32 27 223 C24.89828133 223.8394882 22.79353375 224.67139656 20.6875 225.5 C19.51574219 225.9640625 18.34398437 226.428125 17.13671875 226.90625 C14 228 14 228 11 228 C11 228.66 11 229.32 11 230 C8.1895434 230.63551489 5.37709551 231.2582821 2.5625 231.875 C1.79873047 232.04902344 1.03496094 232.22304688 0.24804688 232.40234375 C-14.05217916 235.50359759 -28.34963833 236.37891547 -42.9375 236.3125 C-44.13199265 236.31076279 -44.13199265 236.31076279 -45.35061646 236.30899048 C-64.44837904 236.25448053 -83.44268837 234.75741989 -102 230 C-102 229.34 -102 228.68 -102 228 C-102.60585937 227.89042969 -103.21171875 227.78085937 -103.8359375 227.66796875 C-110.03143795 226.49558943 -115.99460467 224.91661553 -122 223 C-122 222.34 -122 221.68 -122 221 C-123.175625 220.731875 -124.35125 220.46375 -125.5625 220.1875 C-129.60642688 219.18552881 -133.2167107 217.7340076 -137 216 C-137 215.34 -137 214.68 -137 214 C-137.94875 213.690625 -138.8975 213.38125 -139.875 213.0625 C-143 212 -143 212 -145 211 C-144.01 208.03 -143.02 205.06 -142 202 C-141.34 202 -140.68 202 -140 202 C-139.87753906 201.28457031 -139.75507812 200.56914062 -139.62890625 199.83203125 C-138.98864625 196.94887287 -138.06448444 194.41407527 -136.9375 191.6875 C-136.57527344 190.80449219 -136.21304687 189.92148437 -135.83984375 189.01171875 C-135.56269531 188.34785156 -135.28554687 187.68398438 -135 187 C-134.34 187 -133.68 187 -133 187 C-132.9175 186.360625 -132.835 185.72125 -132.75 185.0625 C-131.70479628 180.79458483 -129.85908174 176.96892333 -128 173 C-127.34 173 -126.68 173 -126 173 C-125.87625 172.278125 -125.7525 171.55625 -125.625 170.8125 C-125.0095069 168.04278106 -124.11555626 165.6029646 -123 163 C-121.35 163.33 -119.7 163.66 -118 164 C-118 164.66 -118 165.32 -118 166 C-117.40832031 166.19335938 -116.81664062 166.38671875 -116.20703125 166.5859375 C-112.0853355 167.94414719 -108.0049476 169.32050585 -104 171 C-104 171.66 -104 172.32 -104 173 C-98.34428139 174.70695733 -92.68507992 176.39334698 -87 178 C-87 178.66 -87 179.32 -87 180 C-85.989375 180.103125 -84.97875 180.20625 -83.9375 180.3125 C-79.78249306 180.8217282 -75.7226854 181.64891033 -71.625 182.5 C-65.75400543 183.70475864 -59.97810373 184.59208233 -54 185 C-54 185.66 -54 186.32 -54 187 C-46.08 187 -38.16 187 -30 187 C-30 186.34 -30 185.68 -30 185 C-28.35451172 184.70996094 -28.35451172 184.70996094 -26.67578125 184.4140625 C-25.22130418 184.15131825 -23.76687983 183.88828199 -22.3125 183.625 C-21.59126953 183.49867188 -20.87003906 183.37234375 -20.12695312 183.2421875 C-16.22742212 182.52994439 -12.57577373 181.79130538 -9 180 C-8.67 179.34 -8.34 178.68 -8 178 C-7.38125 177.79375 -6.7625 177.5875 -6.125 177.375 C-3.20363221 175.48470319 -2.5497896 173.46582823 -1.47265625 170.22265625 C-0.47792094 165.544934 -1.3274413 161.59290218 -3.1875 157.1875 C-5.44828401 154.45896757 -7.76423685 153.36621111 -11 152 C-11 151.34 -11 150.68 -11 150 C-12.14855469 149.81630859 -12.14855469 149.81630859 -13.3203125 149.62890625 C-18.18477156 148.7975072 -23.02842155 147.86675589 -27.875 146.9375 C-28.84953125 146.75123047 -29.8240625 146.56496094 -30.828125 146.37304688 C-33.21887087 145.91599252 -35.60949118 145.45829232 -38 145 C-38 144.34 -38 143.68 -38 143 C-39.16241211 143.0218335 -40.32482422 143.04366699 -41.52246094 143.06616211 C-45.64245905 143.06384267 -49.56718216 142.59118791 -53.640625 141.94140625 C-54.33009216 141.8327977 -55.01955933 141.72418915 -55.72991943 141.61228943 C-57.17229112 141.3839606 -58.61420713 141.15273547 -60.05566406 140.91870117 C-62.25751097 140.56128076 -64.46059239 140.21249383 -66.6640625 139.86523438 C-78.28036132 138.01747179 -78.28036132 138.01747179 -82 137 C-82 136.34 -82 135.68 -82 135 C-83.051875 134.9175 -84.10375 134.835 -85.1875 134.75 C-91.33308436 134.00810063 -97.13999174 131.92058197 -103 130 C-103 129.34 -103 128.68 -103 128 C-104.546875 127.62875 -104.546875 127.62875 -106.125 127.25 C-113.62427425 125.10303035 -119.66804328 119.50395533 -125 114 C-125.66 113.4225 -126.32 112.845 -127 112.25 C-130.34938865 108.48193777 -133 104.10789569 -133 99 C-133.66 99 -134.32 99 -135 99 C-139.67632312 82.43802228 -139.28211817 65.5932079 -135 49 C-134.34 49 -133.68 49 -133 49 C-132.9175 48.175 -132.835 47.35 -132.75 46.5 C-131.413857 40.26466598 -128.8207666 35.23643125 -124 31 C-123.195625 30.195625 -122.39125 29.39125 -121.5625 28.5625 C-120.716875 27.716875 -119.87125 26.87125 -119 26 C-118.195625 25.154375 -117.39125 24.30875 -116.5625 23.4375 C-109.79487179 17 -109.79487179 17 -105 17 C-104.505 15.515 -104.505 15.515 -104 14 C-101.53154075 12.52498202 -99.15946579 11.27007194 -96.5625 10.0625 C-95.81129883 9.71058594 -95.06009766 9.35867188 -94.28613281 8.99609375 C-85.07317197 4.87942114 -74.18570321 1.51878568 -64 2 C-64 1.34 -64 0.68 -64 0 C-42.22984829 -2.11568287 -21.79270537 -1.77322164 0 0 Z " fill="#3A3D44" transform="translate(1552,255)"/>
<path d="M0 0 C22.44 0 44.88 0 68 0 C68.99 4.455 68.99 4.455 70 9 C70.66 9 71.32 9 72 9 C72.83698386 11.45714547 73.66972424 13.91558857 74.5 16.375 C74.85771484 17.42300781 74.85771484 17.42300781 75.22265625 18.4921875 C77 23.7734375 77 23.7734375 77 26 C77.66 26 78.32 26 79 26 C79.83679277 28.62394306 80.66956942 31.24904384 81.5 33.875 C81.85771484 34.99455078 81.85771484 34.99455078 82.22265625 36.13671875 C84 41.7734375 84 41.7734375 84 44 C84.66 44 85.32 44 86 44 C86.37511719 45.08796875 86.75023437 46.1759375 87.13671875 47.296875 C89.51051478 54.12894694 91.89097636 60.91420324 94.75 67.5625 C96.65652129 72.00696281 97.99972167 76.27141153 99 81 C99.66 81 100.32 81 101 81 C101.83887056 83.43572059 102.67126529 85.87333217 103.5 88.3125 C103.85771484 89.34793945 103.85771484 89.34793945 104.22265625 90.40429688 C105.23208263 93.38931489 106 95.82658914 106 99 C106.66 99 107.32 99 108 99 C108.83698386 101.45714547 109.66972424 103.91558857 110.5 106.375 C110.85771484 107.42300781 110.85771484 107.42300781 111.22265625 108.4921875 C113 113.7734375 113 113.7734375 113 116 C113.66 116 114.32 116 115 116 C115.83887056 118.43572059 116.67126529 120.87333217 117.5 123.3125 C117.85771484 124.34793945 117.85771484 124.34793945 118.22265625 125.40429688 C119.23208263 128.38931489 120 130.82658914 120 134 C120.66 134 121.32 134 122 134 C122.83698386 136.45714547 123.66972424 138.91558857 124.5 141.375 C124.85771484 142.42300781 124.85771484 142.42300781 125.22265625 143.4921875 C127 148.7734375 127 148.7734375 127 151 C127.99 151.33 128.98 151.66 130 152 C133.95207137 142.76684211 137.52148365 133.41948758 141 124 C141.66 124 142.32 124 143 124 C143.0825 123.236875 143.165 122.47375 143.25 121.6875 C144.28777865 116.5850883 146.14287032 111.8544506 148 107 C148.66 107 149.32 107 150 107 C150.18369141 105.95779297 150.18369141 105.95779297 150.37109375 104.89453125 C151.0585857 101.73036021 152.01857801 98.75191616 153.0625 95.6875 C153.42472656 94.61886719 153.78695312 93.55023438 154.16015625 92.44921875 C154.43730469 91.64097656 154.71445312 90.83273437 155 90 C155.66 90 156.32 90 157 90 C157.18369141 88.95779297 157.18369141 88.95779297 157.37109375 87.89453125 C158.0585857 84.73036021 159.01857801 81.75191616 160.0625 78.6875 C160.42472656 77.61886719 160.78695312 76.55023438 161.16015625 75.44921875 C161.43730469 74.64097656 161.71445312 73.83273437 162 73 C162.66 73 163.32 73 164 73 C164.3403125 71.39125 164.3403125 71.39125 164.6875 69.75 C166.14190225 63.91176118 168.63369952 58.51426177 171 53 C173.17344991 47.71844254 175.27900323 42.44982312 177 37 C177.66 37 178.32 37 179 37 C179.11988281 36.12085938 179.23976563 35.24171875 179.36328125 34.3359375 C179.97524063 31.12972089 180.87083044 28.59922445 182.1875 25.625 C184.37456266 20.54743346 186.38562934 15.43015603 188.3125 10.25 C188.57893311 9.53408691 188.84536621 8.81817383 189.11987305 8.08056641 C189.74835123 6.38770004 190.37444305 4.69394802 191 3 C191.66 3 192.32 3 193 3 C193 2.01 193 1.02 193 0 C214.45 0 235.9 0 258 0 C257.67 1.65 257.34 3.3 257 5 C256.34 5 255.68 5 255 5 C254.87753906 5.85851562 254.75507812 6.71703125 254.62890625 7.6015625 C253.99872884 11.00686898 253.06437721 14.10342101 251.9375 17.375 C251.57527344 18.43460937 251.21304688 19.49421875 250.83984375 20.5859375 C250.56269531 21.38257813 250.28554688 22.17921875 250 23 C249.34 23 248.68 23 248 23 C247.731875 24.155 247.46375 25.31 247.1875 26.5 C246.11614878 30.81623514 244.62527763 34.86292967 243 39 C242.34 39 241.68 39 241 39 C240.87753906 39.85851562 240.75507812 40.71703125 240.62890625 41.6015625 C239.99872884 45.00686898 239.06437721 48.10342101 237.9375 51.375 C237.57527344 52.43460937 237.21304688 53.49421875 236.83984375 54.5859375 C236.56269531 55.38257813 236.28554688 56.17921875 236 57 C235.34 57 234.68 57 234 57 C233.81824219 57.64066406 233.63648438 58.28132813 233.44921875 58.94140625 C231.93883654 64.13867016 230.23702939 69.05989342 228 74 C225.2076276 80.19178227 223.0899271 86.53926091 221 93 C220.34 93 219.68 93 219 93 C218.731875 94.155 218.46375 95.31 218.1875 96.5 C217.11614878 100.81623514 215.62527763 104.86292967 214 109 C213.34 109 212.68 109 212 109 C211.88011719 109.87914062 211.76023437 110.75828125 211.63671875 111.6640625 C211.02475937 114.87027911 210.12916956 117.40077555 208.8125 120.375 C206.62543734 125.45256654 204.61437066 130.56984397 202.6875 135.75 C202.42106689 136.46591309 202.15463379 137.18182617 201.88012695 137.91943359 C201.25164877 139.61229996 200.62555695 141.30605198 200 143 C199.34 143 198.68 143 198 143 C197.773125 144.0725 197.54625 145.145 197.3125 146.25 C196.14302535 150.94437009 194.28113032 155.24339609 192.375 159.6796875 C190.01878174 165.36941909 188.02176457 171.18420064 186 177 C185.34 177 184.68 177 184 177 C183.80664062 177.73605469 183.61328125 178.47210938 183.4140625 179.23046875 C183.15367187 180.20628906 182.89328125 181.18210937 182.625 182.1875 C182.36976563 183.15042969 182.11453125 184.11335937 181.8515625 185.10546875 C181.05233704 187.82210207 180.0968638 190.39137175 179 193 C178.34 193 177.68 193 177 193 C176.89042969 193.556875 176.78085937 194.11375 176.66796875 194.6875 C175.55724752 200.03341031 174.02774474 204.93063816 172 210 C171.34 210 170.68 210 170 210 C169.87753906 210.69480469 169.75507812 211.38960937 169.62890625 212.10546875 C168.9414143 215.26963979 167.98142199 218.24808384 166.9375 221.3125 C166.57527344 222.38113281 166.21304688 223.44976562 165.83984375 224.55078125 C165.56269531 225.35902344 165.28554688 226.16726563 165 227 C164.34 227 163.68 227 163 227 C163 227.99 163 228.98 163 230 C139.9 230 116.8 230 93 230 C93 229.01 93 228.02 93 227 C92.34 227 91.68 227 91 227 C90.16080602 224.73117913 89.32848276 222.46022973 88.5 220.1875 C88.26152344 219.54490234 88.02304687 218.90230469 87.77734375 218.24023438 C86.72931254 215.35066261 86 213.09923939 86 210 C85.34 210 84.68 210 84 210 C83.16080602 207.73117913 82.32848276 205.46022973 81.5 203.1875 C81.26152344 202.54490234 81.02304687 201.90230469 80.77734375 201.24023438 C79.72931254 198.35066261 79 196.09923939 79 193 C78.34 193 77.68 193 77 193 C76.62488281 191.98421875 76.24976563 190.9684375 75.86328125 189.921875 C75.34693091 188.53103575 74.82995919 187.14042709 74.3125 185.75 C74.04284424 185.02506348 73.77318848 184.30012695 73.49536133 183.55322266 C71.48077075 178.17979779 69.30389737 172.89682966 66.98046875 167.6484375 C65.91649482 164.77443622 65.41327837 162.03070804 65 159 C64.34 159 63.68 159 63 159 C62.16301614 156.54285453 61.33027576 154.08441143 60.5 151.625 C60.26152344 150.92632812 60.02304687 150.22765625 59.77734375 149.5078125 C58 144.2265625 58 144.2265625 58 142 C57.34 142 56.68 142 56 142 C55.61328125 140.87722656 55.2265625 139.75445312 54.828125 138.59765625 C52.39291759 131.58272319 49.96716478 124.66745153 46.8125 117.9375 C45.45984885 114.71194727 44.74438321 111.41175638 44 108 C43.34 108 42.68 108 42 108 C41.16112944 105.56427941 40.32873471 103.12666783 39.5 100.6875 C39.26152344 99.99720703 39.02304687 99.30691406 38.77734375 98.59570312 C37.76791737 95.61068511 37 93.17341086 37 90 C36.34 90 35.68 90 35 90 C33.99619084 87.20964954 32.9968055 84.41785145 32 81.625 C31.71382812 80.8309375 31.42765625 80.036875 31.1328125 79.21875 C30.86210938 78.45820313 30.59140625 77.69765625 30.3125 76.9140625 C30.06113281 76.2123291 29.80976562 75.5105957 29.55078125 74.78759766 C29 73 29 73 29 71 C28.34 71 27.68 71 27 71 C26.15875684 68.75267898 25.32685168 66.50261215 24.5 64.25 C24.14228516 63.29867187 24.14228516 63.29867187 23.77734375 62.328125 C22.55198242 58.96713393 22 56.63128413 22 53 C21.34 53 20.68 53 20 53 C19.16280617 50.70967689 18.3301071 48.41789043 17.5 46.125 C17.26152344 45.47402344 17.02304687 44.82304687 16.77734375 44.15234375 C15 39.2265625 15 39.2265625 15 37 C14.34 37 13.68 37 13 37 C12.16112944 34.56427941 11.32873471 32.12666783 10.5 29.6875 C10.26152344 28.99720703 10.02304687 28.30691406 9.77734375 27.59570312 C8.76791737 24.61068511 8 22.17341086 8 19 C7.34 19 6.68 19 6 19 C4.99619084 16.20964954 3.9968055 13.41785145 3 10.625 C2.57074219 9.43390625 2.57074219 9.43390625 2.1328125 8.21875 C1.86210938 7.45820313 1.59140625 6.69765625 1.3125 5.9140625 C1.06113281 5.2123291 0.80976562 4.5105957 0.55078125 3.78759766 C0 2 0 2 0 0 Z " fill="#3A3D44" transform="translate(707,258)"/>
<path d="M0 0 C0.85722656 -0.00386719 1.71445313 -0.00773438 2.59765625 -0.01171875 C8.87322669 -0.00177331 8.87322669 -0.00177331 10 1.125 C10.09391296 3.02743762 10.11743658 4.93338459 10.11352539 6.83813477 C10.11344986 8.0593251 10.11337433 9.28051544 10.11329651 10.53871155 C10.10818911 11.88127686 10.10297311 13.22384175 10.09765625 14.56640625 C10.09579199 15.93261158 10.09436813 17.29881757 10.09336853 18.6650238 C10.08954394 22.26701695 10.07971417 25.86897 10.06866455 29.47094727 C10.05844916 33.14403745 10.05387064 36.81713409 10.04882812 40.49023438 C10.03809184 47.70184123 10.02101614 54.913415 10 62.125 C9.28457031 62.12107239 8.56914063 62.11714478 7.83203125 62.11309814 C4.55469263 62.09739776 1.27736196 62.08771594 -2 62.078125 C-3.68802734 62.06869873 -3.68802734 62.06869873 -5.41015625 62.05908203 C-16.96981489 62.0337319 -27.64128167 62.5099938 -38 68.125 C-38.78246094 68.51945312 -39.56492187 68.91390625 -40.37109375 69.3203125 C-44.99054911 71.7324419 -48.55719222 74.13859099 -52 78.125 C-52.56589844 78.77339844 -53.13179687 79.42179687 -53.71484375 80.08984375 C-58.11817534 85.38687477 -60.80971709 90.60856822 -63 97.125 C-63.66 97.125 -64.32 97.125 -65 97.125 C-67.57368696 114.20458442 -68.46695524 130.93068845 -68.51171875 148.1875 C-68.52861857 150.68669484 -68.54677563 153.18588145 -68.56611633 155.68505859 C-68.6130476 162.17516506 -68.64322128 168.66523821 -68.66955566 175.15545654 C-68.69965266 181.81334159 -68.74608054 188.4711077 -68.79101562 195.12890625 C-68.87639928 208.12754127 -68.94458583 221.12620434 -69 234.125 C-77.44040261 234.14814265 -85.88079202 234.16592492 -94.32121849 234.17681217 C-98.2401987 234.18203678 -102.15915726 234.1891268 -106.078125 234.20043945 C-109.85822386 234.21128329 -113.63830186 234.21728002 -117.41841507 234.21987724 C-118.86254836 234.22172878 -120.30668047 234.22534424 -121.7508049 234.23073006 C-123.76924277 234.2379602 -125.78770153 234.23840823 -127.80615234 234.23852539 C-128.95642914 234.240746 -130.10670593 234.24296661 -131.2918396 234.24525452 C-134 234.125 -134 234.125 -136 233.125 C-136.02279014 204.09617133 -136.04049806 175.06734353 -136.05106533 146.0385077 C-136.0523161 142.61494588 -136.05361042 139.19138407 -136.05493164 135.76782227 C-136.05519395 135.08622441 -136.05545626 134.40462655 -136.05572652 133.70237421 C-136.06008326 122.65175331 -136.06797082 111.60113759 -136.0771528 100.55051977 C-136.08648924 89.21988069 -136.09198069 77.88924545 -136.09408849 66.55860227 C-136.09539603 60.19086316 -136.09848458 53.82313582 -136.10573006 47.45540047 C-136.11248631 41.46947483 -136.11461777 35.48356588 -136.11310768 29.4976368 C-136.11338419 27.29369008 -136.11539164 25.08974284 -136.11920547 22.88579941 C-136.12413656 19.89085076 -136.12300046 16.89596617 -136.12025452 13.90101624 C-136.12316736 13.01679287 -136.1260802 12.1325695 -136.12908131 11.22155148 C-136.11412121 5.23912121 -136.11412121 5.23912121 -135 4.125 C-133.10301151 4.02584205 -131.20231213 3.99700686 -129.30273438 3.99560547 C-128.08477173 3.99245331 -126.86680908 3.98930115 -125.61193848 3.98605347 C-124.27254195 3.98784325 -122.93314576 3.9898942 -121.59375 3.9921875 C-120.2299396 3.9915144 -118.86612932 3.99054433 -117.50231934 3.98928833 C-114.64069479 3.98781162 -111.7791014 3.98996503 -108.91748047 3.99462891 C-105.24181386 4.00032619 -101.56622026 3.99704704 -97.89055634 3.99105644 C-95.07337896 3.98745009 -92.25621902 3.98858975 -89.43904114 3.99118423 C-88.08339937 3.9918533 -86.72775604 3.99102579 -85.37211609 3.98870468 C-83.48049956 3.98617699 -81.58887751 3.99070986 -79.69726562 3.99560547 C-78.07963318 3.99679886 -78.07963318 3.99679886 -76.42932129 3.99801636 C-74 4.125 -74 4.125 -73 5.125 C-72.8415735 7.1958472 -72.74875578 9.27178029 -72.68359375 11.34765625 C-72.64169922 12.60771484 -72.59980469 13.86777344 -72.55664062 15.16601562 C-72.51682404 16.50650736 -72.47711186 17.8470022 -72.4375 19.1875 C-72.39431958 20.53191523 -72.35070544 21.8763166 -72.30664062 23.22070312 C-72.20014642 26.5220234 -72.0981354 29.82342236 -72 33.125 C-69.76591742 32.24100092 -69.76591742 32.24100092 -68.625 29.6875 C-66.85489509 26.89618071 -65.86163835 26.50966372 -63 25.125 C-61.90833725 23.19169397 -61.90833725 23.19169397 -61 21.125 C-59.5625 19.375 -59.5625 19.375 -58 18.125 C-57.01 18.125 -56.02 18.125 -55 18.125 C-54.83242187 17.54878906 -54.66484375 16.97257812 -54.4921875 16.37890625 C-52.18065111 12.8873971 -48.8708593 11.74708584 -45.125 10.0625 C-43.9817627 9.5375293 -43.9817627 9.5375293 -42.81542969 9.00195312 C-35.15464641 5.5821331 -27.4799462 2.88097277 -19 3.125 C-19 2.465 -19 1.805 -19 1.125 C-12.62747698 0.31558679 -6.42050786 -0.03004918 0 0 Z " fill="#3A3D44" transform="translate(1382,253.875)"/>
</svg>
