<?xml version="1.0" encoding="UTF-8"?>
<svg version="1.1" xmlns="http://www.w3.org/2000/svg" width="681" height="581">
<path d="M0 0 C6.69240278 1.33655745 11.97308997 4.71678815 17.75057983 8.24468994 C20.75711056 10.07981441 23.77990265 11.88784657 26.80078125 13.69921875 C27.4109761 14.06599731 28.02117096 14.43277588 28.64985657 14.81066895 C34.27276678 18.18305479 39.96636274 21.42224137 45.6875 24.625 C53.397225 28.94952928 61.06051322 33.34360656 68.6875 37.8125 C77.4262053 42.93220336 86.20014377 47.98646598 95 53 C104.72134099 58.53968899 114.40895092 64.13375063 124.06689453 69.78344727 C131.32212239 74.02617573 138.59398236 78.23919543 145.875 82.4375 C146.94016846 83.05294678 148.00533691 83.66839355 149.1027832 84.30249023 C154.19896868 87.24455864 159.30070178 90.17571736 164.42242432 93.07307434 C166.81320657 94.42651603 169.20058966 95.78589062 171.58770752 97.14578247 C173.26790336 98.09968112 174.95298498 99.04495777 176.63818359 99.98999023 C181.73139171 102.89437832 186.17245374 105.52185537 190 110 C182.25160929 125.65872528 174.35180109 141.22026374 165.84130859 156.48071289 C161.41799406 164.41883162 157.27979057 172.40625927 153.47044373 180.65708923 C150.95564944 186.0662792 148.28310395 191.36038676 145.47265625 196.62109375 C141.62836646 203.87274812 137.85153401 211.15589136 134.125 218.46875 C133.6243251 219.45113144 133.12365021 220.43351288 132.60780334 221.44566345 C131.07094919 224.46330859 129.53525492 227.48154095 128 230.5 C121.86311016 242.56571655 115.70403991 254.61491868 109.37548828 266.5814209 C106.15702068 272.67567932 103.04672499 278.81798243 100 285 C96.55119258 291.99787087 92.99806076 298.93170502 89.3515625 305.828125 C83.06745653 317.7158458 76.97932591 329.70234911 70.88085938 341.68603516 C61.26980135 360.56489914 61.26980135 360.56489914 56.7890625 368.890625 C53.850805 374.35059622 51.04082106 379.86363049 48.28523254 385.41722107 C45.28527422 391.45471502 42.22029464 397.45784794 39.14453125 403.45703125 C38.63018524 404.4611203 38.11583923 405.46520935 37.58590698 406.49972534 C35.45611989 410.65682462 33.32555358 414.81351769 31.19165039 418.96850586 C29.61117353 422.04685627 28.03387845 425.12682036 26.45703125 428.20703125 C25.98296341 429.12813187 25.50889557 430.04923248 25.02046204 430.99824524 C22.25061954 436.41540397 19.66285577 441.88690134 17.16950989 447.43641663 C15.54526913 450.99677694 13.79077154 454.48021114 11.99609375 457.95703125 C11.45540504 459.01112686 11.45540504 459.01112686 10.90379333 460.08651733 C9.75140688 462.33009365 8.59478655 464.57144785 7.4375 466.8125 C7.04314758 467.57825348 6.64879517 468.34400696 6.24249268 469.13296509 C-0.31439484 481.86128507 -7.02970649 494.49226506 -14 507 C-18.21077305 506.40053727 -21.9880115 505.42718176 -25.98486328 503.98144531 C-27.15099152 503.56247986 -28.31711975 503.1435144 -29.51858521 502.71185303 C-30.78586465 502.25071206 -32.05310601 501.78946643 -33.3203125 501.328125 C-34.64704538 500.84934544 -35.97394309 500.37102238 -37.30099487 499.89312744 C-40.84343336 498.6160293 -44.38358571 497.33270364 -47.92333984 496.04818726 C-51.61810418 494.70869178 -55.31501072 493.3751354 -59.01171875 492.04101562 C-65.48482143 489.70404331 -71.95630552 487.36263323 -78.42683792 485.01855469 C-83.61414526 483.13940723 -88.80264406 481.26358712 -93.9921875 479.390625 C-95.36482855 478.89518526 -96.73746856 478.39974267 -98.11010742 477.90429688 C-98.75499115 477.67154053 -99.39987488 477.43878418 -100.06430054 477.19897461 C-102.03307125 476.48805808 -104.00155428 475.77634999 -105.9699707 475.06445312 C-116.90286518 471.11149866 -127.84316971 467.17921785 -138.78460693 463.24998474 C-140.15897749 462.75642235 -141.53334678 462.26285644 -142.90771484 461.76928711 C-143.94234612 461.39772696 -143.94234612 461.39772696 -144.99787903 461.01866055 C-149.88415296 459.26364319 -154.76964385 457.5064583 -159.65478516 455.74829102 C-162.41435536 454.7552803 -165.17396438 453.76237752 -167.93359375 452.76953125 C-168.61407021 452.52468554 -169.29454666 452.27983982 -169.99564362 452.02757454 C-178.26557551 449.05255246 -186.54051783 446.09244133 -194.82395935 443.15518188 C-199.16957715 441.61322183 -203.5124082 440.06351346 -207.85482788 438.51257324 C-209.84125994 437.80547448 -211.82904312 437.10215797 -213.81826782 436.4029541 C-242.60183061 426.28268766 -242.60183061 426.28268766 -249.17138672 412.92114258 C-249.85295048 411.41771244 -250.52183111 409.90848512 -251.1796875 408.39453125 C-251.54931107 407.57036209 -251.91893463 406.74619293 -252.29975891 405.89704895 C-253.50286556 403.20709903 -254.68897677 400.51002008 -255.875 397.8125 C-256.71809507 395.91863502 -257.56226703 394.0252491 -258.4074707 392.13232422 C-260.54708375 387.3335399 -262.67319311 382.52890461 -264.7958374 377.72259521 C-266.60124723 373.64058821 -268.41941156 369.56430413 -270.23828125 365.48828125 C-273.84702055 357.39565236 -277.43921654 349.29575549 -281.02789307 341.19421387 C-283.97381374 334.54476023 -286.92343952 327.89695193 -289.875 321.25 C-290.20304626 320.51107513 -290.53109253 319.77215027 -290.86907959 319.01083374 C-296.51535386 306.29661241 -302.22311883 293.61062207 -307.94381714 280.92974854 C-314.24337817 266.96054599 -320.44914919 252.95152534 -326.6255188 238.92749023 C-332.58817149 225.39457767 -338.637511 211.9033604 -344.75 198.4375 C-351.06323537 184.52909561 -357.30120157 170.59142247 -363.44506836 156.60742188 C-368.02073565 146.19624422 -372.65716764 135.81327297 -377.3125 125.4375 C-384.29853734 109.86507203 -391.18480742 94.2501978 -398.0246582 78.61303711 C-398.38457352 77.79076126 -398.74448883 76.96848541 -399.11531067 76.12129211 C-399.80850279 74.53734067 -400.50105985 72.95311111 -401.19291687 71.36857605 C-403.44658343 66.21951676 -405.77520528 61.11080333 -408.19628906 56.0378418 C-409 54 -409 54 -409 51 C-398.63553521 52.38626161 -388.37839455 54.14130775 -378.10107422 56.0534668 C-376.45305215 56.35791013 -374.80498456 56.66210709 -373.15687561 56.96607971 C-368.71486083 57.78611028 -364.27350805 58.60967398 -359.83228827 59.43399787 C-355.13431703 60.30543084 -350.43578681 61.17384037 -345.73733521 62.04267883 C-337.82713021 63.5059025 -329.91734034 64.97135304 -322.0078125 66.43823242 C-312.96443956 68.11537245 -303.92049976 69.78942572 -294.87621868 71.46166104 C-286.08316128 73.08749137 -277.29045969 74.71523797 -268.49792862 76.34391212 C-264.80447145 77.02805586 -261.11091259 77.71164635 -257.41726303 78.3947506 C-245.60826599 80.57927827 -233.80163446 82.77601153 -222 85 C-220.72532978 85.24020583 -220.72532978 85.24020583 -219.42490864 85.4852643 C-214.33212169 86.44631556 -209.24078625 87.41460947 -204.15113854 88.39215243 C-202.57452293 88.6943703 -200.99759438 88.99496087 -199.42033553 89.29380357 C-197.25476442 89.70467252 -195.09053346 90.12198263 -192.92654419 90.54109192 C-191.70463442 90.7754234 -190.48272465 91.00975489 -189.22378731 91.25118732 C-181.77610555 92.98111488 -181.77610555 92.98111488 -179.65527344 95.76538086 C-176.12738173 103.39514666 -173.13862331 111.20849155 -170.18557739 119.07443237 C-164.5816709 133.97742002 -158.70840501 148.75023742 -152.5625 163.4375 C-146.92545625 176.91406788 -141.39388802 190.42420957 -136 204 C-130.87915535 216.88020559 -125.65499025 229.71021981 -120.3125 242.5 C-112.18112012 261.97209399 -104.30647807 281.54585878 -96.4375 301.125 C-96.12011368 301.91470058 -95.80272736 302.70440117 -95.47572327 303.51803207 C-95.00053505 304.70036612 -95.00053505 304.70036612 -94.51574707 305.90658569 C-92.63333151 310.59024356 -90.75054548 315.27375226 -88.8671875 319.95703125 C-88.41193947 321.08910413 -88.41193947 321.08910413 -87.94749451 322.24404716 C-83.03607399 334.45430642 -78.078966 346.64497053 -73.0625 358.8125 C-68.08342153 370.89207211 -63.16384176 382.99349967 -58.3125 395.125 C-58.02472687 395.84402496 -57.73695374 396.56304993 -57.44046021 397.30386353 C-53.89150473 406.17683199 -50.40586389 415.07093314 -47 424 C-47 421.09493883 -47.38287677 418.678175 -47.94287109 415.83398438 C-48.15122589 414.77017548 -48.35958069 413.70636658 -48.57424927 412.61032104 C-48.80498138 411.4498526 -49.0357135 410.28938416 -49.2734375 409.09375 C-49.51262909 407.88244415 -49.75182068 406.67113831 -49.9982605 405.42312622 C-50.78586521 401.4478099 -51.57934405 397.4737104 -52.375 393.5 C-52.51014511 392.82392448 -52.64529022 392.14784897 -52.78453064 391.45128632 C-57.70399572 366.84984813 -62.98855833 342.36035787 -69 318 C-69.17019653 317.30461121 -69.34039307 316.60922241 -69.51574707 315.89276123 C-76.55165294 287.1520104 -86.10048807 259.21027621 -96.52270508 231.5390625 C-100.80479831 220.11799878 -105.13839629 208.42077596 -99.97927856 196.5087738 C-99.04729059 194.60750159 -98.08932581 192.71880892 -97.10986328 190.84155273 C-96.58947983 189.79742722 -96.06909637 188.7533017 -95.53294373 187.67753601 C-93.81803308 184.25095797 -92.06971345 180.8426737 -90.3203125 177.43359375 C-89.10645401 175.03239171 -87.8997703 172.62760614 -86.69284058 170.22291565 C-83.83769698 164.54466934 -80.9580388 158.87923529 -78.06937587 153.2179814 C-74.81974471 146.84609486 -71.59928225 140.45963206 -68.38059258 134.07207572 C-59.13567772 115.73081445 -49.8873024 97.39133609 -40.28495979 79.23393154 C-37.30109441 73.58885516 -34.39448052 67.91047258 -31.5625 62.1875 C-30.88682983 60.83047974 -30.88682983 60.83047974 -30.19750977 59.44604492 C-28.79629251 56.63170893 -27.39775743 53.81605574 -26 51 C-19.83880136 38.58706026 -13.60620762 26.22647368 -7.10595703 13.98706055 C-4.65421518 9.36604333 -2.29582142 4.70039228 0 0 Z " fill="#3E4148" transform="translate(447,40)"/>
<path d="M0 0 C6.69240278 1.33655745 11.97308997 4.71678815 17.75057983 8.24468994 C20.75711056 10.07981441 23.77990265 11.88784657 26.80078125 13.69921875 C27.4109761 14.06599731 28.02117096 14.43277588 28.64985657 14.81066895 C34.27276678 18.18305479 39.96636274 21.42224137 45.6875 24.625 C53.397225 28.94952928 61.06051322 33.34360656 68.6875 37.8125 C77.4262053 42.93220336 86.20014377 47.98646598 95 53 C104.72134099 58.53968899 114.40895092 64.13375063 124.06689453 69.78344727 C131.32212239 74.02617573 138.59398236 78.23919543 145.875 82.4375 C146.94016846 83.05294678 148.00533691 83.66839355 149.1027832 84.30249023 C154.19896868 87.24455864 159.30070178 90.17571736 164.42242432 93.07307434 C166.81320657 94.42651603 169.20058966 95.78589062 171.58770752 97.14578247 C173.26790336 98.09968112 174.95298498 99.04495777 176.63818359 99.98999023 C181.73139171 102.89437832 186.17245374 105.52185537 190 110 C182.25160929 125.65872528 174.35180109 141.22026374 165.84130859 156.48071289 C161.41799406 164.41883162 157.27979057 172.40625927 153.47044373 180.65708923 C150.95564944 186.0662792 148.28310395 191.36038676 145.47265625 196.62109375 C141.62836646 203.87274812 137.85153401 211.15589136 134.125 218.46875 C133.37398766 219.94232216 133.37398766 219.94232216 132.60780334 221.44566345 C131.07094919 224.46330859 129.53525492 227.48154095 128 230.5 C121.86311016 242.56571655 115.70403991 254.61491868 109.37548828 266.5814209 C106.15702068 272.67567932 103.04672499 278.81798243 100 285 C96.55119258 291.99787087 92.99806076 298.93170502 89.3515625 305.828125 C83.06745653 317.7158458 76.97932591 329.70234911 70.88085938 341.68603516 C61.26980135 360.56489914 61.26980135 360.56489914 56.7890625 368.890625 C53.850805 374.35059622 51.04082106 379.86363049 48.28523254 385.41722107 C45.28527422 391.45471502 42.22029464 397.45784794 39.14453125 403.45703125 C38.63018524 404.4611203 38.11583923 405.46520935 37.58590698 406.49972534 C35.45611989 410.65682462 33.32555358 414.81351769 31.19165039 418.96850586 C29.61117353 422.04685627 28.03387845 425.12682036 26.45703125 428.20703125 C25.98296341 429.12813187 25.50889557 430.04923248 25.02046204 430.99824524 C22.25177678 436.41314069 19.66622753 441.88254121 17.17396545 447.42973328 C15.52947946 451.03015237 13.74713704 454.54904944 11.92578125 458.0625 C11.55985367 458.77343307 11.19392609 459.48436615 10.81690979 460.21684265 C9.65142713 462.47927562 8.48211344 464.73970021 7.3125 467 C6.50718283 468.56088084 5.70200779 470.12183501 4.89697266 471.68286133 C-0.67853521 482.48514315 -6.29572658 493.2650734 -12 504 C-12.66 504 -13.32 504 -14 504 C-13.90912109 503.15147461 -13.81824219 502.30294922 -13.72460938 501.42871094 C-9.49596174 460.41082889 -9.33325275 418.98671038 -14 378 C-14.0825 377.25995728 -14.165 376.51991455 -14.25 375.75744629 C-19.68040285 327.24671778 -30.04865432 278.54260957 -45.86865234 232.34570312 C-47.08197284 228.75758398 -48.24183653 225.15490696 -49.39453125 221.546875 C-55.04395475 203.95066208 -61.75568581 187.00796686 -69.27832031 170.13232422 C-70.07829799 168.33571033 -70.87301937 166.53674364 -71.66162109 164.73510742 C-72.36166238 163.13669553 -73.07454343 161.54381336 -73.80322266 159.95825195 C-74.11050293 159.25531006 -74.4177832 158.55236816 -74.734375 157.828125 C-75.13994629 156.9294873 -75.13994629 156.9294873 -75.55371094 156.01269531 C-76.62981438 151.15963363 -74.62477897 146.75246671 -72.47485352 142.47973633 C-71.94662491 141.42035355 -71.4183963 140.36097076 -70.87416077 139.26948547 C-70.01025978 137.56794563 -70.01025978 137.56794563 -69.12890625 135.83203125 C-68.52587841 134.63091414 -67.92350966 133.42946593 -67.32176208 132.22770691 C-65.73319398 129.06015284 -64.1347643 125.89767259 -62.53448486 122.73602295 C-61.25826815 120.21043615 -59.98924383 117.68127264 -58.72057533 115.15188789 C-52.78518706 103.3194807 -46.79234529 91.52202885 -40.58558655 79.82905579 C-35.5476872 70.30854907 -30.78858241 60.64753588 -26 51 C-19.83880136 38.58706026 -13.60620762 26.22647368 -7.10595703 13.98706055 C-4.65421518 9.36604333 -2.29582142 4.70039228 0 0 Z " fill="#286069" transform="translate(447,40)"/>
<path d="M0 0 C2.25885683 2.25885683 3.01457122 4.06590219 4.25 7.00390625 C4.68820068 8.0407959 5.12640137 9.07768555 5.57788086 10.14599609 C6.04718018 11.27344238 6.51647949 12.40088867 7 13.5625 C7.73585327 15.32327881 7.73585327 15.32327881 8.48657227 17.11962891 C9.50465562 19.56335658 10.5196739 22.00836329 11.53173828 24.45458984 C12.44945182 26.67059183 13.37157618 28.88477827 14.30029297 31.09619141 C25.43340352 57.61984156 34.56858785 85.21298066 42 113 C42.18048889 113.67341431 42.36097778 114.34682861 42.54693604 115.04064941 C53.10688602 154.55636827 60.64177956 194.16686649 64.77862549 234.86535645 C65.08032877 237.77458459 65.41624854 240.67978373 65.74609375 243.5859375 C68.92805925 274.21905361 68.13473813 306.03513374 65.625 336.6875 C65.56196686 337.4783902 65.49893372 338.2692804 65.43399048 339.08413696 C64.66098692 348.46799164 64.66098692 348.46799164 64 352 C63.34 352.33 62.68 352.66 62 353 C60.95237908 350.66919843 59.91203653 348.33551085 58.875 346 C58.59140625 345.3709375 58.3078125 344.741875 58.015625 344.09375 C55.62273222 338.68373155 53.53407742 333.17082629 51.47438049 327.62779236 C49.43543605 322.1437606 47.34798614 316.67983663 45.23828125 311.22265625 C44.91738525 310.39156342 44.59648926 309.56047058 44.26586914 308.70419312 C42.94718809 305.28977459 41.62751822 301.8757434 40.30541992 298.46264648 C39.32286047 295.92502581 38.34289765 293.38641425 37.36328125 290.84765625 C37.06948074 290.0912233 36.77568024 289.33479034 36.47297668 288.55543518 C35.6330521 286.37576543 34.81104011 284.19057251 34 282 C33.74327011 281.31307068 33.48654022 280.62614136 33.22203064 279.918396 C30.8716313 273.2967666 29.55645472 266.51841173 28.21484375 259.6328125 C27.8207553 257.65341999 27.42665358 255.67403006 27.03197289 253.69475555 C26.61600214 251.60501882 26.20246088 249.51481286 25.78939819 247.42449951 C24.35406595 240.1695042 22.89109142 232.92007528 21.421875 225.671875 C21.27572439 224.95077419 21.12957378 224.22967339 20.97899437 223.48672104 C17.06818171 204.22499475 12.70804309 185.08181308 8 166 C7.74630646 164.96332184 7.74630646 164.96332184 7.48748779 163.90570068 C0.45082524 135.16046206 -9.09889157 107.21451495 -19.52270508 79.5390625 C-23.92300896 67.80271107 -28.1474919 56.21088172 -22.70507812 44.04785156 C-21.67169954 41.98296571 -20.61257792 39.93080999 -19.53125 37.890625 C-18.97634888 36.79780212 -18.42144775 35.70497925 -17.84973145 34.57904053 C-16.08888093 31.12399805 -14.29526261 27.68726521 -12.5 24.25 C-11.29335829 21.89696768 -10.08890828 19.54281009 -8.88671875 17.1875 C-5.94969599 11.44507852 -2.9856484 5.71727669 0 0 Z " fill="#1C4B4F" transform="translate(370,192)"/>
</svg>
